# xmcd
#
# Track frame offsets: 
#        150
#        16266
#        30066
#        37013
#        51016
#        66606
#        80594
#        93870
#        103092
#        116014
#        124026
#        137131
#        149275
#        164115
#        176593
#        189147
#        202652
#        210559
#        223715
#        238108
#        251688
#
# Disc length: 3536 seconds
#
# Revision: 0
# Processed by: cddbd v1.5.2PL0 Copyright (c) Steve Scherf et al.
# Submitted via: ExactAudioCopyFreeDBPlugin 1.0
#
DISCID=2a0dce15
DTITLE=Robert Crumb and Jerry Zolten - Chimpin' The Blues
DYEAR=2013
DGENRE=Blues
TTITLE0=Chimpin' Intro
TTITLE1=Frenchy's String Band - Texas And Pacific Blues
TTITLE2=Chimpin' 1
TTITLE3=Macon Ed and Tampa Joe - Warm Wipe Stomp
TTITLE4=Chimpin' 2
TTITLE5=Eddie Head and Family - Down On Me
TTITLE6=Reverend J. C. Burnett And Congregation - I'll Just Stand And 
TTITLE6=Wring My Hands And Cry
TTITLE7=Chimpin' 3
TTITLE8=Bobbie Leecan's Need More Band - Washboard Cut-Out
TTITLE9=Chimpin' 4
TTITLE10=Joe Linthcombe - Humming Blues
TTITLE11=Chimpin' 5
TTITLE12=Lottie Kimbrough - Rolling Log Blues
TTITLE13=Chimpin' 6
TTITLE14=Louis Lasky - How You Want Your Rolling Done?
TTITLE15=Cheika Tetma - Guenene Tini
TTITLE16=Chimpin' 7
TTITLE17=Cannon's Jug Stompers - Walk Right In
TTITLE18=Chimpin' 8
TTITLE19=Geeshie Wiley - Last Kind Words
TTITLE20=Chimpin' Outro
EXTD=
EXTT0=
EXTT1=
EXTT2=
EXTT3=
EXTT4=
EXTT5=
EXTT6=
EXTT7=
EXTT8=
EXTT9=
EXTT10=
EXTT11=
EXTT12=
EXTT13=
EXTT14=
EXTT15=
EXTT16=
EXTT17=
EXTT18=
EXTT19=
EXTT20=
PLAYORDER=
